<?xml version="1.0" encoding="UTF-8" standalone="no"?>
<!DOCTYPE svg PUBLIC "-//W3C//DTD SVG 1.1//EN"
 "http://www.w3.org/Graphics/SVG/1.1/DTD/svg11.dtd">
<!-- Generated by graphviz version 2.38.0 (20140413.2041)
 -->
<!-- Title: finite_state_machine Pages: 1 -->
<svg width="576pt" height="280pt"
 viewBox="0.00 0.00 576.00 279.95" xmlns="http://www.w3.org/2000/svg" xmlns:xlink="http://www.w3.org/1999/xlink">
<g id="graph0" class="graph" transform="scale(0.492872 0.492872) rotate(0) translate(4 564)">
<title>finite_state_machine</title>
<polygon fill="white" stroke="none" points="-4,4 -4,-564 1164.66,-564 1164.66,4 -4,4"/>
<!-- Main -->
<g id="node1" class="node"><title>Main</title>
<ellipse fill="none" stroke="black" cx="591.32" cy="-537.5" rx="28.5497" ry="18"/>
<text text-anchor="middle" x="591.32" y="-533.3" font-family="Times,serif" font-size="14.00">Main</text>
</g>
<!-- Test1 -->
<g id="node2" class="node"><title>Test1</title>
<ellipse fill="none" stroke="black" cx="240.32" cy="-444.738" rx="29.274" ry="18"/>
<text text-anchor="middle" x="240.32" y="-440.538" font-family="Times,serif" font-size="14.00">Test1</text>
</g>
<!-- Main&#45;&gt;Test1 -->
<g id="edge13" class="edge"><title>Main&#45;&gt;Test1</title>
<path fill="none" stroke="red" d="M568.349,-526.487C558.605,-522.512 547.043,-518.147 536.32,-515 456.283,-491.503 433.355,-497.783 352.32,-478 326.526,-471.702 297.748,-463.384 275.823,-456.772"/>
<polygon fill="red" stroke="red" points="276.546,-453.334 265.961,-453.773 274.51,-460.031 276.546,-453.334"/>
</g>
<!-- Test2 -->
<g id="node3" class="node"><title>Test2</title>
<ellipse fill="none" stroke="black" cx="390.32" cy="-444.738" rx="29.274" ry="18"/>
<text text-anchor="middle" x="390.32" y="-440.538" font-family="Times,serif" font-size="14.00">Test2</text>
</g>
<!-- Main&#45;&gt;Test2 -->
<g id="edge2" class="edge"><title>Main&#45;&gt;Test2</title>
<path fill="none" stroke="black" stroke-dasharray="1,5" d="M568.654,-526.264C532.915,-510.127 463.342,-478.711 422.459,-460.25"/>
<polygon fill="black" stroke="black" points="423.767,-457 413.212,-456.075 420.886,-463.38 423.767,-457"/>
</g>
<!-- Test3 -->
<g id="node4" class="node"><title>Test3</title>
<ellipse fill="none" stroke="black" cx="515.32" cy="-444.738" rx="29.274" ry="18"/>
<text text-anchor="middle" x="515.32" y="-440.538" font-family="Times,serif" font-size="14.00">Test3</text>
</g>
<!-- Main&#45;&gt;Test3 -->
<g id="edge4" class="edge"><title>Main&#45;&gt;Test3</title>
<path fill="none" stroke="black" stroke-dasharray="1,5" d="M578.428,-521.103C566.527,-506.891 548.679,-485.576 534.997,-469.237"/>
<polygon fill="black" stroke="black" points="537.379,-466.63 528.276,-461.21 532.012,-471.124 537.379,-466.63"/>
</g>
<!-- Test4 -->
<g id="node5" class="node"><title>Test4</title>
<ellipse fill="none" stroke="black" cx="591.32" cy="-444.738" rx="29.274" ry="18"/>
<text text-anchor="middle" x="591.32" y="-440.538" font-family="Times,serif" font-size="14.00">Test4</text>
</g>
<!-- Main&#45;&gt;Test4 -->
<g id="edge5" class="edge"><title>Main&#45;&gt;Test4</title>
<path fill="none" stroke="black" stroke-dasharray="1,5" d="M591.32,-519.428C591.32,-506.453 591.32,-488.338 591.32,-473.316"/>
<polygon fill="black" stroke="black" points="594.82,-473.041 591.32,-463.041 587.82,-473.041 594.82,-473.041"/>
</g>
<!-- Test5 -->
<g id="node6" class="node"><title>Test5</title>
<ellipse fill="none" stroke="black" cx="667.32" cy="-444.738" rx="29.274" ry="18"/>
<text text-anchor="middle" x="667.32" y="-440.538" font-family="Times,serif" font-size="14.00">Test5</text>
</g>
<!-- Main&#45;&gt;Test5 -->
<g id="edge6" class="edge"><title>Main&#45;&gt;Test5</title>
<path fill="none" stroke="black" stroke-dasharray="1,5" d="M604.213,-521.103C616.114,-506.891 633.962,-485.576 647.643,-469.237"/>
<polygon fill="black" stroke="black" points="650.628,-471.124 654.365,-461.21 645.261,-466.63 650.628,-471.124"/>
</g>
<!-- Test6 -->
<g id="node7" class="node"><title>Test6</title>
<ellipse fill="none" stroke="black" cx="841.32" cy="-444.738" rx="29.274" ry="18"/>
<text text-anchor="middle" x="841.32" y="-440.538" font-family="Times,serif" font-size="14.00">Test6</text>
</g>
<!-- Main&#45;&gt;Test6 -->
<g id="edge11" class="edge"><title>Main&#45;&gt;Test6</title>
<path fill="none" stroke="black" stroke-dasharray="1,5" d="M611.051,-524.352C616.819,-521.073 623.217,-517.691 629.32,-515 689.178,-488.603 762.368,-466.88 805.219,-455.16"/>
<polygon fill="black" stroke="black" points="806.178,-458.526 814.918,-452.536 804.351,-451.769 806.178,-458.526"/>
</g>
<!-- Done -->
<g id="node8" class="node"><title>Done</title>
<ellipse fill="none" stroke="black" cx="1097.32" cy="-444.738" rx="29.0539" ry="29.0539"/>
<ellipse fill="none" stroke="black" cx="1097.32" cy="-444.738" rx="33.0255" ry="33.0255"/>
<text text-anchor="middle" x="1097.32" y="-440.538" font-family="Times,serif" font-size="14.00">Done</text>
</g>
<!-- Main&#45;&gt;Done -->
<g id="edge12" class="edge"><title>Main&#45;&gt;Done</title>
<path fill="none" stroke="black" stroke-dasharray="1,5" d="M610.394,-523.899C616.256,-520.531 622.868,-517.216 629.32,-515 629.32,-515 938.915,-469.181 1054.49,-452.076"/>
<polygon fill="black" stroke="black" points="1055.03,-455.534 1064.41,-450.608 1054.01,-448.61 1055.03,-455.534"/>
</g>
<!-- Test1&#45;&gt;Test2 -->
<g id="edge16" class="edge"><title>Test1&#45;&gt;Test2</title>
<path fill="none" stroke="black" d="M269.598,-444.738C292.828,-444.738 325.521,-444.738 351.027,-444.738"/>
<polygon fill="black" stroke="black" points="351.116,-448.238 361.116,-444.738 351.116,-441.238 351.116,-448.238"/>
<text text-anchor="middle" x="315.32" y="-450.538" font-family="Times,serif" font-size="14.00">Test1.done</text>
</g>
<!-- Test1Sub1 -->
<g id="node9" class="node"><title>Test1Sub1</title>
<ellipse fill="none" stroke="black" cx="47.3202" cy="-310.156" rx="47.1411" ry="18"/>
<text text-anchor="middle" x="47.3202" y="-305.956" font-family="Times,serif" font-size="14.00">Test1Sub1</text>
</g>
<!-- Test1&#45;&gt;Test1Sub1 -->
<g id="edge14" class="edge"><title>Test1&#45;&gt;Test1Sub1</title>
<path fill="none" stroke="red" d="M221.463,-430.784C187.972,-407.777 117.853,-359.608 77.5536,-331.925"/>
<polygon fill="red" stroke="red" points="79.4149,-328.957 69.1906,-326.18 75.4513,-334.727 79.4149,-328.957"/>
</g>
<!-- Test1Sub2 -->
<g id="node10" class="node"><title>Test1Sub2</title>
<ellipse fill="none" stroke="black" cx="203.32" cy="-310.156" rx="47.155" ry="47.155"/>
<ellipse fill="none" stroke="black" cx="203.32" cy="-310.156" rx="51.141" ry="51.141"/>
<text text-anchor="middle" x="203.32" y="-305.956" font-family="Times,serif" font-size="14.00">Test1Sub2</text>
</g>
<!-- Test1&#45;&gt;Test1Sub2 -->
<g id="edge1" class="edge"><title>Test1&#45;&gt;Test1Sub2</title>
<path fill="none" stroke="black" stroke-dasharray="1,5" d="M235.634,-426.946C231.572,-412.389 225.444,-390.433 219.614,-369.54"/>
<polygon fill="black" stroke="black" points="222.935,-368.419 216.875,-359.727 216.192,-370.3 222.935,-368.419"/>
</g>
<!-- Test2Sub2 -->
<g id="node11" class="node"><title>Test2Sub2</title>
<ellipse fill="none" stroke="black" cx="324.32" cy="-310.156" rx="47.155" ry="47.155"/>
<ellipse fill="none" stroke="black" cx="324.32" cy="-310.156" rx="51.141" ry="51.141"/>
<text text-anchor="middle" x="324.32" y="-305.956" font-family="Times,serif" font-size="14.00">Test2Sub2</text>
</g>
<!-- Test2&#45;&gt;Test2Sub2 -->
<g id="edge3" class="edge"><title>Test2&#45;&gt;Test2Sub2</title>
<path fill="none" stroke="black" stroke-dasharray="1,5" d="M382.095,-427.214C374.38,-411.718 362.41,-387.67 351.361,-365.475"/>
<polygon fill="black" stroke="black" points="354.45,-363.826 346.86,-356.434 348.183,-366.946 354.45,-363.826"/>
</g>
<!-- Test2Sub1 -->
<g id="node20" class="node"><title>Test2Sub1</title>
<ellipse fill="none" stroke="black" cx="441.32" cy="-310.156" rx="47.1411" ry="18"/>
<text text-anchor="middle" x="441.32" y="-305.956" font-family="Times,serif" font-size="14.00">Test2Sub1</text>
</g>
<!-- Test2&#45;&gt;Test2Sub1 -->
<g id="edge17" class="edge"><title>Test2&#45;&gt;Test2Sub1</title>
<path fill="none" stroke="red" d="M396.779,-426.946C405.431,-404.456 420.875,-364.306 431.11,-337.699"/>
<polygon fill="red" stroke="red" points="434.429,-338.82 434.752,-328.23 427.895,-336.306 434.429,-338.82"/>
</g>
<!-- Test3Sub1 -->
<g id="node12" class="node"><title>Test3Sub1</title>
<ellipse fill="none" stroke="black" cx="554.32" cy="-310.156" rx="47.1411" ry="18"/>
<text text-anchor="middle" x="554.32" y="-305.956" font-family="Times,serif" font-size="14.00">Test3Sub1</text>
</g>
<!-- Test3&#45;&gt;Test3Sub1 -->
<g id="edge18" class="edge"><title>Test3&#45;&gt;Test3Sub1</title>
<path fill="none" stroke="red" d="M520.26,-426.946C526.846,-404.555 538.582,-364.659 546.409,-338.051"/>
<polygon fill="red" stroke="red" points="549.833,-338.811 549.298,-328.23 543.118,-336.835 549.833,-338.811"/>
</g>
<!-- Test4Sub1 -->
<g id="node13" class="node"><title>Test4Sub1</title>
<ellipse fill="none" stroke="black" cx="667.32" cy="-310.156" rx="47.1411" ry="18"/>
<text text-anchor="middle" x="667.32" y="-305.956" font-family="Times,serif" font-size="14.00">Test4Sub1</text>
</g>
<!-- Test4&#45;&gt;Test4Sub1 -->
<g id="edge20" class="edge"><title>Test4&#45;&gt;Test4Sub1</title>
<path fill="none" stroke="red" d="M600.639,-427.481C613.616,-404.842 637.263,-363.591 652.627,-336.788"/>
<polygon fill="red" stroke="red" points="655.748,-338.38 657.685,-327.964 649.675,-334.899 655.748,-338.38"/>
</g>
<!-- Test5&#45;&gt;Test6 -->
<g id="edge23" class="edge"><title>Test5&#45;&gt;Test6</title>
<path fill="none" stroke="black" d="M696.837,-444.738C725.671,-444.738 769.752,-444.738 801.642,-444.738"/>
<polygon fill="black" stroke="black" points="801.95,-448.238 811.95,-444.738 801.95,-441.238 801.95,-448.238"/>
<text text-anchor="middle" x="754.32" y="-450.538" font-family="Times,serif" font-size="14.00">done.state.Test5P</text>
</g>
<!-- Test5P -->
<g id="node14" class="node"><title>Test5P</title>
<ellipse fill="none" stroke="black" cx="766.32" cy="-310.156" rx="34.1101" ry="18"/>
<text text-anchor="middle" x="766.32" y="-305.956" font-family="Times,serif" font-size="14.00">Test5P</text>
</g>
<!-- Test5&#45;&gt;Test5P -->
<g id="edge22" class="edge"><title>Test5&#45;&gt;Test5P</title>
<path fill="none" stroke="red" d="M679.066,-428.008C696.166,-405.107 728.066,-362.386 748.194,-335.431"/>
<polygon fill="red" stroke="red" points="751.103,-337.385 754.281,-327.278 745.494,-333.197 751.103,-337.385"/>
</g>
<!-- Test6&#45;&gt;Done -->
<g id="edge24" class="edge"><title>Test6&#45;&gt;Done</title>
<path fill="none" stroke="black" d="M870.687,-444.738C915.534,-444.738 1001.37,-444.738 1053.57,-444.738"/>
<polygon fill="black" stroke="black" points="1053.86,-448.238 1063.86,-444.738 1053.86,-441.238 1053.86,-448.238"/>
<text text-anchor="middle" x="967.258" y="-450.538" font-family="Times,serif" font-size="14.00">ccxml:connection.disconnected</text>
</g>
<!-- Test6&#45;&gt;Done -->
<g id="edge25" class="edge"><title>Test6&#45;&gt;Done</title>
<path fill="none" stroke="black" d="M868.708,-438.535C887.689,-434.562 913.611,-429.782 936.742,-427.738 963.762,-425.35 970.745,-425.446 997.773,-427.738 1016.61,-429.335 1037.24,-432.603 1054.81,-435.851"/>
<polygon fill="black" stroke="black" points="1054.29,-439.314 1064.77,-437.748 1055.6,-432.438 1054.29,-439.314"/>
<text text-anchor="middle" x="967.258" y="-430.538" font-family="Times,serif" font-size="14.00">send.failed</text>
</g>
<!-- Test1Sub1&#45;&gt;Test1Sub2 -->
<g id="edge15" class="edge"><title>Test1Sub1&#45;&gt;Test1Sub2</title>
<path fill="none" stroke="black" d="M94.973,-310.156C109.747,-310.156 126.242,-310.156 141.817,-310.156"/>
<polygon fill="black" stroke="black" points="141.892,-313.656 151.892,-310.156 141.892,-306.656 141.892,-313.656"/>
<text text-anchor="middle" x="123.32" y="-315.956" font-family="Times,serif" font-size="14.00">Event1</text>
</g>
<!-- Test3Sub1&#45;&gt;Test4 -->
<g id="edge19" class="edge"><title>Test3Sub1&#45;&gt;Test4</title>
<path fill="none" stroke="black" d="M558.473,-328.25C562.592,-344.947 569.197,-371.049 575.599,-393.476 577.832,-401.3 580.413,-409.759 582.829,-417.466"/>
<polygon fill="black" stroke="black" points="579.509,-418.573 585.869,-427.047 586.181,-416.457 579.509,-418.573"/>
<text text-anchor="middle" x="593.181" y="-382.276" font-family="Times,serif" font-size="14.00">Timer</text>
</g>
<!-- Test4Sub1&#45;&gt;Test5 -->
<g id="edge21" class="edge"><title>Test4Sub1&#45;&gt;Test5</title>
<path fill="none" stroke="black" d="M667.32,-328.572C667.32,-351.003 667.32,-390.231 667.32,-416.591"/>
<polygon fill="black" stroke="black" points="663.82,-416.676 667.32,-426.676 670.82,-416.676 663.82,-416.676"/>
</g>
<!-- Test5PSub1 -->
<g id="node15" class="node"><title>Test5PSub1</title>
<ellipse fill="none" stroke="black" cx="647.32" cy="-203.835" rx="52.4781" ry="18"/>
<text text-anchor="middle" x="647.32" y="-199.635" font-family="Times,serif" font-size="14.00">Test5PSub1</text>
</g>
<!-- Test5P&#45;&gt;Test5PSub1 -->
<g id="edge7" class="edge"><title>Test5P&#45;&gt;Test5PSub1</title>
<path fill="none" stroke="blue" d="M754.073,-292.843C745.933,-282.526 734.684,-269.227 723.32,-258.835 710.065,-246.715 694.021,-234.956 680.097,-225.522"/>
<polygon fill="blue" stroke="blue" points="682.009,-222.591 671.745,-219.966 678.132,-228.419 682.009,-222.591"/>
</g>
<!-- Test5PSub2 -->
<g id="node16" class="node"><title>Test5PSub2</title>
<ellipse fill="none" stroke="black" cx="787.32" cy="-203.835" rx="52.4781" ry="18"/>
<text text-anchor="middle" x="787.32" y="-199.635" font-family="Times,serif" font-size="14.00">Test5PSub2</text>
</g>
<!-- Test5P&#45;&gt;Test5PSub2 -->
<g id="edge9" class="edge"><title>Test5P&#45;&gt;Test5PSub2</title>
<path fill="none" stroke="blue" d="M769.788,-291.929C773.071,-275.621 778.051,-250.879 781.866,-231.929"/>
<polygon fill="blue" stroke="blue" points="785.305,-232.581 783.847,-222.087 778.443,-231.2 785.305,-232.581"/>
</g>
<!-- Test5PSub1Final -->
<g id="node17" class="node"><title>Test5PSub1Final</title>
<ellipse fill="none" stroke="black" cx="629.32" cy="-74.4177" rx="70.3399" ry="70.3399"/>
<ellipse fill="none" stroke="black" cx="629.32" cy="-74.4177" rx="74.3355" ry="74.3355"/>
<text text-anchor="middle" x="629.32" y="-70.2177" font-family="Times,serif" font-size="14.00">Test5PSub1Final</text>
</g>
<!-- Test5PSub1&#45;&gt;Test5PSub1Final -->
<g id="edge8" class="edge"><title>Test5PSub1&#45;&gt;Test5PSub1Final</title>
<path fill="none" stroke="red" d="M644.893,-185.651C643.824,-178.084 642.483,-168.591 641.039,-158.369"/>
<polygon fill="red" stroke="red" points="644.493,-157.797 639.628,-148.384 637.561,-158.776 644.493,-157.797"/>
</g>
<!-- Test5PSub2Final -->
<g id="node18" class="node"><title>Test5PSub2Final</title>
<ellipse fill="none" stroke="black" cx="796.32" cy="-74.4177" rx="70.3399" ry="70.3399"/>
<ellipse fill="none" stroke="black" cx="796.32" cy="-74.4177" rx="74.3355" ry="74.3355"/>
<text text-anchor="middle" x="796.32" y="-70.2177" font-family="Times,serif" font-size="14.00">Test5PSub2Final</text>
</g>
<!-- Test5PSub2&#45;&gt;Test5PSub2Final -->
<g id="edge10" class="edge"><title>Test5PSub2&#45;&gt;Test5PSub2Final</title>
<path fill="none" stroke="red" d="M788.534,-185.651C789.059,-178.213 789.716,-168.914 790.424,-158.891"/>
<polygon fill="red" stroke="red" points="793.933,-158.891 791.146,-148.669 786.95,-158.397 793.933,-158.891"/>
</g>
<!-- datamodel -->
<g id="node19" class="node"><title>datamodel</title>
<polygon fill="none" stroke="black" points="637.981,-515.5 637.981,-559.5 1160.66,-559.5 1160.66,-515.5 637.981,-515.5"/>
<text text-anchor="middle" x="677.471" y="-533.3" font-family="Times,serif" font-size="14.00">DataModel</text>
<polyline fill="none" stroke="black" points="716.96,-515.5 716.96,-559.5 "/>
<text text-anchor="middle" x="747.509" y="-544.3" font-family="Times,serif" font-size="14.00">ccxmlid</text>
<polyline fill="none" stroke="black" points="716.96,-537.5 778.057,-537.5 "/>
<text text-anchor="middle" x="747.509" y="-522.3" font-family="Times,serif" font-size="14.00">32459</text>
<polyline fill="none" stroke="black" points="778.057,-515.5 778.057,-559.5 "/>
<text text-anchor="middle" x="803.557" y="-544.3" font-family="Times,serif" font-size="14.00">v3id</text>
<polyline fill="none" stroke="black" points="778.057,-537.5 829.057,-537.5 "/>
<text text-anchor="middle" x="803.557" y="-522.3" font-family="Times,serif" font-size="14.00">17620</text>
<polyline fill="none" stroke="black" points="829.057,-515.5 829.057,-559.5 "/>
<text text-anchor="middle" x="890.969" y="-544.3" font-family="Times,serif" font-size="14.00">dest</text>
<polyline fill="none" stroke="black" points="829.057,-537.5 952.88,-537.5 "/>
<text text-anchor="middle" x="890.969" y="-522.3" font-family="Times,serif" font-size="14.00">&#39;tel:+18315552020&#39;</text>
<polyline fill="none" stroke="black" points="952.88,-515.5 952.88,-559.5 "/>
<text text-anchor="middle" x="1013.37" y="-544.3" font-family="Times,serif" font-size="14.00">src</text>
<polyline fill="none" stroke="black" points="952.88,-537.5 1073.86,-537.5 "/>
<text text-anchor="middle" x="1013.37" y="-522.3" font-family="Times,serif" font-size="14.00">&#39;helloworld2.vxml&#39;</text>
<polyline fill="none" stroke="black" points="1073.86,-515.5 1073.86,-559.5 "/>
<text text-anchor="middle" x="1117.26" y="-544.3" font-family="Times,serif" font-size="14.00">id</text>
<polyline fill="none" stroke="black" points="1073.86,-537.5 1160.66,-537.5 "/>
<text text-anchor="middle" x="1117.26" y="-522.3" font-family="Times,serif" font-size="14.00">&#39;HelloWorld&#39;</text>
</g>
<!-- ini_Main -->
<!-- ini_Main&#45;&gt;Main -->
<g id="edge26" class="edge"><title>ini_Main&#45;&gt;Main</title>
<path fill="none" stroke="red" d="M527.125,-537.5C535.504,-537.5 543.883,-537.5 552.262,-537.5"/>
<polygon fill="red" stroke="red" points="552.482,-541 562.482,-537.5 552.482,-534 552.482,-541"/>
</g>
</g>
</svg>
