<?xml version="1.0" encoding="UTF-8" standalone="no"?>
<!DOCTYPE svg PUBLIC "-//W3C//DTD SVG 1.1//EN"
 "http://www.w3.org/Graphics/SVG/1.1/DTD/svg11.dtd">
<!-- Generated by graphviz version 2.38.0 (20140413.2041)
 -->
<!-- Title: finite_state_machine Pages: 1 -->
<svg width="570pt" height="274pt"
 viewBox="0.00 0.00 570.32 274.29" xmlns="http://www.w3.org/2000/svg" xmlns:xlink="http://www.w3.org/1999/xlink">
<g id="graph0" class="graph" transform="scale(1 1) rotate(0) translate(4 270.294)">
<title>finite_state_machine</title>
<polygon fill="white" stroke="none" points="-4,4 -4,-270.294 566.322,-270.294 566.322,4 -4,4"/>
<!-- datamodel -->
<g id="node1" class="node"><title>datamodel</title>
<polygon fill="none" stroke="black" points="0,-221.794 0,-265.794 284.049,-265.794 284.049,-221.794 0,-221.794"/>
<text text-anchor="middle" x="39.4897" y="-239.594" font-family="Times,serif" font-size="14.00">DataModel</text>
<polyline fill="none" stroke="black" points="78.9795,-221.794 78.9795,-265.794 "/>
<text text-anchor="middle" x="116.528" y="-250.594" font-family="Times,serif" font-size="14.00">cook_time</text>
<polyline fill="none" stroke="black" points="78.9795,-243.794 154.076,-243.794 "/>
<text text-anchor="middle" x="116.528" y="-228.594" font-family="Times,serif" font-size="14.00">5</text>
<polyline fill="none" stroke="black" points="154.076,-221.794 154.076,-265.794 "/>
<text text-anchor="middle" x="196.29" y="-250.594" font-family="Times,serif" font-size="14.00">door_closed</text>
<polyline fill="none" stroke="black" points="154.076,-243.794 238.504,-243.794 "/>
<text text-anchor="middle" x="196.29" y="-228.594" font-family="Times,serif" font-size="14.00">true</text>
<polyline fill="none" stroke="black" points="238.504,-221.794 238.504,-265.794 "/>
<text text-anchor="middle" x="261.276" y="-250.594" font-family="Times,serif" font-size="14.00">timer</text>
<polyline fill="none" stroke="black" points="238.504,-243.794 284.049,-243.794 "/>
<text text-anchor="middle" x="261.276" y="-228.594" font-family="Times,serif" font-size="14.00">0</text>
</g>
<!-- oven -->
<g id="node2" class="node"><title>oven</title>
<ellipse fill="none" stroke="black" cx="369.024" cy="-243.794" rx="27.0958" ry="18"/>
<text text-anchor="middle" x="369.024" y="-239.594" font-family="Times,serif" font-size="14.00">oven</text>
</g>
<!-- engine -->
<g id="node3" class="node"><title>engine</title>
<ellipse fill="none" stroke="black" cx="323.024" cy="-166.294" rx="33.8596" ry="18"/>
<text text-anchor="middle" x="323.024" y="-162.094" font-family="Times,serif" font-size="14.00">engine</text>
</g>
<!-- oven&#45;&gt;engine -->
<g id="edge1" class="edge"><title>oven&#45;&gt;engine</title>
<path fill="none" stroke="blue" d="M359.269,-226.782C353.151,-216.74 345.136,-203.586 338.199,-192.201"/>
<polygon fill="blue" stroke="blue" points="341.116,-190.261 332.924,-183.542 335.139,-193.903 341.116,-190.261"/>
</g>
<!-- door -->
<g id="node4" class="node"><title>door</title>
<ellipse fill="none" stroke="black" cx="402.024" cy="-166.294" rx="27" ry="18"/>
<text text-anchor="middle" x="402.024" y="-162.094" font-family="Times,serif" font-size="14.00">door</text>
</g>
<!-- oven&#45;&gt;door -->
<g id="edge4" class="edge"><title>oven&#45;&gt;door</title>
<path fill="none" stroke="blue" d="M376.185,-226.411C380.437,-216.684 385.922,-204.133 390.745,-193.101"/>
<polygon fill="blue" stroke="blue" points="393.966,-194.47 394.764,-183.905 387.552,-191.666 393.966,-194.47"/>
</g>
<!-- off -->
<g id="node5" class="node"><title>off</title>
<ellipse fill="none" stroke="black" cx="140.024" cy="-93.2936" rx="27" ry="18"/>
<text text-anchor="middle" x="140.024" y="-89.0936" font-family="Times,serif" font-size="14.00">off</text>
</g>
<!-- engine&#45;&gt;off -->
<g id="edge6" class="edge"><title>engine&#45;&gt;off</title>
<path fill="none" stroke="red" d="M296.415,-154.97C263.523,-142.208 207.582,-120.505 172.28,-106.808"/>
<polygon fill="red" stroke="red" points="173.496,-103.526 162.907,-103.172 170.964,-110.052 173.496,-103.526"/>
</g>
<!-- on -->
<g id="node6" class="node"><title>on</title>
<ellipse fill="none" stroke="black" cx="323.024" cy="-93.2936" rx="27" ry="18"/>
<text text-anchor="middle" x="323.024" y="-89.0936" font-family="Times,serif" font-size="14.00">on</text>
</g>
<!-- engine&#45;&gt;on -->
<g id="edge2" class="edge"><title>engine&#45;&gt;on</title>
<path fill="none" stroke="black" stroke-dasharray="1,5" d="M323.024,-148.107C323.024,-140.083 323.024,-130.341 323.024,-121.363"/>
<polygon fill="black" stroke="black" points="326.525,-121.322 323.024,-111.322 319.525,-121.323 326.525,-121.322"/>
</g>
<!-- closed -->
<g id="node9" class="node"><title>closed</title>
<ellipse fill="none" stroke="black" cx="401.024" cy="-93.2936" rx="32.8994" ry="18"/>
<text text-anchor="middle" x="401.024" y="-89.0936" font-family="Times,serif" font-size="14.00">closed</text>
</g>
<!-- door&#45;&gt;closed -->
<g id="edge13" class="edge"><title>door&#45;&gt;closed</title>
<path fill="none" stroke="red" d="M401.782,-148.107C401.669,-140.083 401.532,-130.341 401.406,-121.363"/>
<polygon fill="red" stroke="red" points="404.905,-121.272 401.264,-111.322 397.906,-121.371 404.905,-121.272"/>
</g>
<!-- open -->
<g id="node10" class="node"><title>open</title>
<ellipse fill="none" stroke="black" cx="535.024" cy="-93.2936" rx="27.0958" ry="18"/>
<text text-anchor="middle" x="535.024" y="-89.0936" font-family="Times,serif" font-size="14.00">open</text>
</g>
<!-- door&#45;&gt;open -->
<g id="edge5" class="edge"><title>door&#45;&gt;open</title>
<path fill="none" stroke="black" stroke-dasharray="1,5" d="M422.514,-154.355C444.611,-142.559 480.003,-123.666 505.188,-110.221"/>
<polygon fill="black" stroke="black" points="507.119,-113.158 514.292,-105.361 503.822,-106.983 507.119,-113.158"/>
</g>
<!-- off&#45;&gt;on -->
<g id="edge7" class="edge"><title>off&#45;&gt;on</title>
<path fill="none" stroke="black" d="M160.656,-104.983C165.484,-107.179 170.709,-109.144 175.808,-110.294 199.965,-115.74 263.084,-115.74 287.241,-110.294 289.153,-109.863 291.083,-109.317 293.003,-108.687"/>
<polygon fill="black" stroke="black" points="294.374,-111.909 302.392,-104.983 291.806,-105.397 294.374,-111.909"/>
<text text-anchor="middle" x="231.524" y="-119.094" font-family="Times,serif" font-size="14.00">turn.on</text>
</g>
<!-- on&#45;&gt;off -->
<g id="edge9" class="edge"><title>on&#45;&gt;off</title>
<path fill="none" stroke="black" d="M298.186,-85.776C284.814,-82.1174 267.954,-78.1215 252.589,-76.2936 233.996,-74.0816 229.053,-74.0816 210.459,-76.2936 198.696,-77.6931 186.056,-80.3634 174.776,-83.1802"/>
<polygon fill="black" stroke="black" points="173.65,-79.8568 164.863,-85.776 175.424,-86.6285 173.65,-79.8568"/>
<text text-anchor="middle" x="231.524" y="-79.0936" font-family="Times,serif" font-size="14.00">turn.off</text>
</g>
<!-- on&#45;&gt;off -->
<g id="edge10" class="edge"><title>on&#45;&gt;off</title>
<path fill="none" stroke="black" d="M295.911,-93.2936C264.508,-93.2936 212.587,-93.2936 177.377,-93.2936"/>
<polygon fill="black" stroke="black" points="177.027,-89.7937 167.027,-93.2936 177.027,-96.7937 177.027,-89.7937"/>
<text text-anchor="middle" x="231.524" y="-99.0936" font-family="Times,serif" font-size="14.00">timer &gt;= cook_time</text>
</g>
<!-- idle -->
<g id="node7" class="node"><title>idle</title>
<ellipse fill="none" stroke="black" cx="220.024" cy="-20.2936" rx="27" ry="18"/>
<text text-anchor="middle" x="220.024" y="-16.0936" font-family="Times,serif" font-size="14.00">idle</text>
</g>
<!-- on&#45;&gt;idle -->
<g id="edge8" class="edge"><title>on&#45;&gt;idle</title>
<path fill="none" stroke="red" d="M304.61,-79.6003C288.499,-68.4942 264.895,-52.2238 246.713,-39.6906"/>
<polygon fill="red" stroke="red" points="248.499,-36.6709 238.279,-33.8771 244.526,-42.4343 248.499,-36.6709"/>
</g>
<!-- cooking -->
<g id="node8" class="node"><title>cooking</title>
<ellipse fill="none" stroke="black" cx="365.024" cy="-20.2936" rx="38.6955" ry="18"/>
<text text-anchor="middle" x="365.024" y="-16.0936" font-family="Times,serif" font-size="14.00">cooking</text>
</g>
<!-- on&#45;&gt;cooking -->
<g id="edge3" class="edge"><title>on&#45;&gt;cooking</title>
<path fill="none" stroke="black" stroke-dasharray="1,5" d="M332.555,-76.1826C337.743,-67.4117 344.279,-56.3629 350.125,-46.4814"/>
<polygon fill="black" stroke="black" points="353.161,-48.2225 355.24,-37.8336 347.136,-44.6585 353.161,-48.2225"/>
</g>
<!-- idle&#45;&gt;cooking -->
<g id="edge11" class="edge"><title>idle&#45;&gt;cooking</title>
<path fill="none" stroke="black" d="M247.298,-20.2936C266.648,-20.2936 293.156,-20.2936 316.119,-20.2936"/>
<polygon fill="black" stroke="black" points="316.381,-23.7937 326.381,-20.2936 316.381,-16.7937 316.381,-23.7937"/>
<text text-anchor="middle" x="286.726" y="-26.0936" font-family="Times,serif" font-size="14.00">In(&#39;closed&#39;)</text>
</g>
<!-- cooking&#45;&gt;idle -->
<g id="edge12" class="edge"><title>cooking&#45;&gt;idle</title>
<path fill="none" stroke="black" d="M335.367,-8.75723C328.261,-6.49291 320.622,-4.45936 313.348,-3.29363 289.982,0.451079 283.293,1.42128 260.103,-3.29363 257.089,-3.90634 254.021,-4.75371 250.992,-5.74568"/>
<polygon fill="black" stroke="black" points="249.689,-2.49658 241.564,-9.2965 252.156,-9.04741 249.689,-2.49658"/>
<text text-anchor="middle" x="286.726" y="-6.09363" font-family="Times,serif" font-size="14.00">In(&#39;open&#39;)</text>
</g>
<!-- closed&#45;&gt;open -->
<g id="edge14" class="edge"><title>closed&#45;&gt;open</title>
<path fill="none" stroke="black" d="M425.797,-81.4209C431.313,-79.2961 437.219,-77.4062 442.92,-76.2936 467.178,-71.5595 474.4,-70.9489 498.531,-76.2936 500.475,-76.7244 502.44,-77.2699 504.395,-77.8994"/>
<polygon fill="black" stroke="black" points="503.373,-81.2569 513.962,-81.6026 505.9,-74.7288 503.373,-81.2569"/>
<text text-anchor="middle" x="470.725" y="-79.0936" font-family="Times,serif" font-size="14.00">door.open</text>
</g>
<!-- open&#45;&gt;closed -->
<g id="edge15" class="edge"><title>open&#45;&gt;closed</title>
<path fill="none" stroke="black" d="M507.551,-93.2936C489.26,-93.2936 464.851,-93.2936 444.014,-93.2936"/>
<polygon fill="black" stroke="black" points="443.805,-89.7937 433.805,-93.2936 443.804,-96.7937 443.805,-89.7937"/>
<text text-anchor="middle" x="470.725" y="-99.0936" font-family="Times,serif" font-size="14.00">door.close</text>
</g>
<!-- ini_oven -->
<!-- ini_oven&#45;&gt;oven -->
<g id="edge16" class="edge"><title>ini_oven&#45;&gt;oven</title>
<path fill="none" stroke="red" d="M306.056,-243.794C314.449,-243.794 322.843,-243.794 331.237,-243.794"/>
<polygon fill="red" stroke="red" points="331.476,-247.294 341.476,-243.794 331.476,-240.294 331.476,-247.294"/>
</g>
</g>
</svg>
